<?xml version="1.0" standalone="no"?>
<!DOCTYPE svg PUBLIC "-//W3C//DTD SVG 20010904//EN"
 "http://www.w3.org/TR/2001/REC-SVG-20010904/DTD/svg10.dtd">
<svg version="1.0" xmlns="http://www.w3.org/2000/svg"
 width="225.000000pt" height="225.000000pt" viewBox="0 0 225.000000 225.000000"
 preserveAspectRatio="xMidYMid meet"><g transform="translate(0.000000,225.000000) scale(0.100000,-0.100000)"
fill="#000000" stroke="none"> <path d="M159 2226 c-3 -3 35 -443 83 -978 48 -535 87 -980 88 -988 0 -12 95
-42 391 -125 215 -59 396 -108 403 -108 10 0 788 213 793 217 1 1 29 308 63
681 33 374 73 819 88 988 15 169 26 310 23 312 -6 6 -1926 6 -1932 1z m1753
-243 c-111 -1254 -141 -1566 -148 -1573 -5 -4 -151 -47 -325 -95 l-315 -87
-315 87 c-173 48 -318 91 -323 96 -5 4 -17 99 -27 211 -18 195 -103 1144 -118
1316 l-7 82 791 0 791 0 -4 -37z"/>
<path d="M524 1743 c3 -38 9 -94 12 -125 l7 -58 323 -2 324 -3 -309 -158 -310
-158 4 -32 c3 -18 7 -58 10 -89 l6 -58 405 0 c222 0 404 -3 404 -7 -2 -53 -32
-298 -37 -304 -5 -3 -59 -19 -122 -34 -125 -31 -113 -31 -272 15 l-66 20 -7
65 c-4 36 -9 79 -13 95 l-5 30 -140 0 -139 0 6 -47 c3 -27 12 -110 19 -186 8
-76 16 -140 18 -143 6 -5 467 -124 483 -124 15 0 477 119 482 124 5 5 72 671
73 718 l0 28 -216 2 -217 3 230 117 230 118 12 113 c6 62 11 121 11 130 0 16
-44 17 -606 17 l-607 0 7 -67z"/>
</g>
</svg>
