<svg height="464pt" viewBox="0 -80 464 464" width="464pt" xmlns="http://www.w3.org/2000/svg"><path d="m184 0h96v48h-96zm0 0"/><path d="m56 128h96v48h-96zm0 0"/><path d="m0 256h80v48h-80zm0 0"/><path d="m128 256h80v48h-80zm0 0"/><path d="m384 256h80v48h-80zm0 0"/><path d="m256 256h80v48h-80zm0 0"/><path d="m312 128h96v48h-96zm0 0"/><path d="m112 96h240v16h16v-24c0-4.417969-3.582031-8-8-8h-120v-16h-16v16h-120c-4.417969 0-8 3.582031-8 8v24h16zm0 0"/><path d="m168 208h-56v-16h-16v16h-56c-4.417969 0-8 3.582031-8 8v24h16v-16h112v16h16v-24c0-4.417969-3.582031-8-8-8zm0 0"/><path d="m424 208h-56v-16h-16v16h-56c-4.417969 0-8 3.582031-8 8v24h16v-16h112v16h16v-24c0-4.417969-3.582031-8-8-8zm0 0"/></svg>